<?xml version="1.0" ?><!DOCTYPE svg  PUBLIC '-//W3C//DTD SVG 1.1//EN'  'http://www.w3.org/Graphics/SVG/1.1/DTD/svg11.dtd'><svg height="135px" style="enable-background:new 0 0 120 135;" version="1.1" viewBox="0 0 120 135" width="120px" xml:space="preserve" xmlns="http://www.w3.org/2000/svg" xmlns:xlink="http://www.w3.org/1999/xlink"><style type="text/css">
<![CDATA[
	.st0{fill:#EF3E42;}
	.st1{fill:#FFFFFF;}
	.st2{fill:none;}
	.st3{fill-rule:evenodd;clip-rule:evenodd;fill:#FFFFFF;}
]]>
</style><defs/><path d="M39.3,49.1c-2,5.8-3.2,12-3.6,18.5h17.2V49.1H39.3L39.3,49.1z M42.4,41.6h10.5V26.8C48.7,31,45.2,36,42.4,41.6L42.4,41.6z   M34.2,41.6c2.2-5.1,5-9.9,8.3-14.2c-8.5,2.7-15.8,7.8-21.1,14.2H34.2L34.2,41.6z M97,49.1l-15.2,0c1.8,5.8,2.9,12,3.2,18.5h17.6  C102.1,60.9,100.1,54.7,97,49.1L97,49.1z M77.5,67.6c-0.3-6.5-1.6-12.7-3.6-18.5H60.3v18.5H77.5L77.5,67.6z M70.8,41.6  C68.1,36,64.5,31,60.3,26.8v14.8H70.8L70.8,41.6z M79,41.6h12.8c-5.4-6.3-12.7-11.5-21.1-14.2C74,31.7,76.8,36.5,79,41.6L79,41.6z   M16.2,93.6l15.2,0c-1.8-5.8-2.9-12-3.2-18.5H10.6C11.2,81.8,13.1,88.1,16.2,93.6L16.2,93.6z M35.7,75.1c0.3,6.5,1.6,12.7,3.6,18.5  h13.6V75.1H35.7L35.7,75.1z M42.4,101.1c2.8,5.6,6.4,10.6,10.5,14.8v-14.8H42.4L42.4,101.1z M34.2,101.1H21.3  c5.4,6.3,12.7,11.5,21.1,14.2C39.2,111.1,36.4,106.3,34.2,101.1L34.2,101.1z M81.8,93.6l15.2,0c3.1-5.6,5-11.8,5.6-18.5H85  C84.7,81.6,83.6,87.8,81.8,93.6L81.8,93.6z M73.9,93.6c2-5.8,3.2-12,3.6-18.5H60.3v18.5H73.9L73.9,93.6z M70.8,101.1H60.3v14.8  C64.5,111.8,68.1,106.8,70.8,101.1L70.8,101.1z M79,101.1c-2.2,5.1-5,9.9-8.3,14.2c8.5-2.7,15.8-7.8,21.1-14.2H79L79,101.1z   M31.4,49.1l-15.2,0c-3.1,5.6-5,11.9-5.6,18.5h17.6C28.6,61.2,29.7,54.9,31.4,49.1L31.4,49.1z M56.6,125C27,125,3,101,3,71.4  c0-29.6,24-53.6,53.6-53.6c29.6,0,53.6,24,53.6,53.6C110.2,101,86.2,125,56.6,125L56.6,125z"/><rect class="st2" height="135" id="_x3C_Slice_x3E__100_" width="120"/></svg>